<?xml version="1.0" encoding="UTF-8" standalone="no"?>
<!DOCTYPE svg PUBLIC "-//W3C//DTD SVG 1.1//EN" "http://www.w3.org/Graphics/SVG/1.1/DTD/svg11.dtd">
<svg width="100%" height="100%" viewBox="0 0 876 536" version="1.1" xmlns="http://www.w3.org/2000/svg" xmlns:xlink="http://www.w3.org/1999/xlink" xml:space="preserve" xmlns:serif="http://www.serif.com/" style="fill-rule:evenodd;clip-rule:evenodd;stroke-linejoin:round;stroke-miterlimit:2;">
    <g transform="matrix(1,0,0,1,-802.34,-2595.1)">
        <g transform="matrix(1,0,0,1,-79.4827,1391.41)">
            <g transform="matrix(1,0,0,1,-363.339,876.06)">
                <g transform="matrix(1,0,0,1,357.464,-872.602)">
                    <path d="M1369.27,1465.01L1281.31,1552.97L1182.41,1552.98L1270.38,1465.01L1369.27,1465.01Z" style="fill:url(#_Linear1);"/>
                </g>
                <g transform="matrix(1,0,0,1,362.921,-872.37)">
                    <path d="M1546.14,1288.6L1634.11,1376.57L1535.23,1376.57L1447.02,1288.37L1546.14,1288.6Z" style="fill:url(#_Linear2);"/>
                </g>
                <g transform="matrix(1,0,0,1,362.921,-872.37)">
                    <path d="M1369.5,1288.37L1496.47,1415.33L1447.02,1464.78L1270.38,1288.6L1369.5,1288.37Z" style="fill:url(#_Linear3);"/>
                </g>
                <g transform="matrix(1,0,0,1,362.921,-872.37)">
                    <path d="M1264.93,1464.78L1182.41,1376.57L1281.21,1376.49L1363.81,1465.01L1264.93,1464.78Z" style="fill:url(#_Linear4);"/>
                </g>
                <g transform="matrix(1,0,0,1,362.921,-872.37)">
                    <path d="M1176.95,1553L1006,1376.57L1104.89,1376.57L1229.01,1500.69L1176.95,1553Z" style="fill:url(#_Linear5);"/>
                </g>
                <g transform="matrix(1,0,0,1,362.921,-872.37)">
                    <path d="M1634.11,1376.57L1545.91,1464.78L1447.02,1464.78L1535.23,1376.57L1634.11,1376.57Z" style="fill:url(#_Linear6);"/>
                </g>
                <g transform="matrix(1,0,0,1,362.921,-872.37)">
                    <path d="M1408.26,1327.13L1447.02,1288.37L1496.47,1337.81L1457.71,1376.56L1408.26,1327.13Z" style="fill:url(#_Linear7);"/>
                </g>
                <g transform="matrix(1,0,0,1,362.921,-872.37)">
                    <path d="M1182.41,1376.57L1270.38,1288.6L1320.06,1337.81L1281.31,1376.56L1182.41,1376.57Z" style="fill:url(#_Linear8);"/>
                </g>
                <g transform="matrix(1,0,0,1,362.921,-872.37)">
                    <path d="M1006,1376.57L1182.58,1200L1281.3,1200.16L1104.89,1376.57L1006,1376.57Z" style="fill:url(#_Linear9);"/>
                </g>
            </g>
            <g transform="matrix(1.60167,0,0,1.60167,351.104,412.599)">
                <path d="M396.628,777.603C396.028,777.603 395.728,777.319 395.728,776.753C395.728,776.519 395.778,776.253 395.878,775.953L408.828,745.103C409.061,744.536 409.319,744.144 409.603,743.928C409.886,743.711 410.294,743.603 410.828,743.603L414.478,743.603C415.011,743.603 415.411,743.711 415.678,743.928C415.944,744.144 416.194,744.536 416.428,745.103L429.378,775.953C429.478,776.253 429.528,776.519 429.528,776.753C429.528,777.319 429.228,777.603 428.628,777.603L422.578,777.603C422.111,777.603 421.769,777.528 421.553,777.378C421.336,777.228 421.144,776.953 420.978,776.553L418.678,770.653L406.528,770.653L404.278,776.553C404.111,776.953 403.919,777.228 403.703,777.378C403.486,777.528 403.144,777.603 402.678,777.603L396.628,777.603ZM416.778,764.903L412.628,754.103L408.428,764.903L416.778,764.903Z" style="fill:rgb(31,34,28);fill-rule:nonzero;"/>
                <path d="M435.928,777.603C435.128,777.603 434.553,777.428 434.203,777.078C433.853,776.728 433.678,776.186 433.678,775.453L433.678,745.803C433.678,745.069 433.853,744.519 434.203,744.153C434.553,743.786 435.128,743.603 435.928,743.603L448.578,743.603C457.044,743.603 461.278,747.303 461.278,754.703C461.278,757.069 460.778,759.078 459.778,760.728C458.778,762.378 457.294,763.636 455.328,764.503L460.578,776.003C460.678,776.236 460.728,776.469 460.728,776.703C460.728,777.303 460.378,777.603 459.678,777.603L454.128,777.603C453.661,777.603 453.311,777.544 453.078,777.428C452.844,777.311 452.644,777.053 452.478,776.653L447.878,765.653L441.928,765.653L441.928,775.453C441.928,776.186 441.761,776.728 441.428,777.078C441.094,777.428 440.511,777.603 439.678,777.603L435.928,777.603ZM447.378,759.703C449.278,759.703 450.703,759.303 451.653,758.503C452.603,757.703 453.078,756.436 453.078,754.703C453.078,752.969 452.644,751.703 451.778,750.903C450.911,750.103 449.611,749.703 447.878,749.703L441.928,749.703L441.928,759.703L447.378,759.703Z" style="fill:rgb(31,34,28);fill-rule:nonzero;"/>
                <path d="M478.428,778.353C475.828,778.353 473.336,778.078 470.953,777.528C468.569,776.978 466.644,776.203 465.178,775.203C464.678,774.836 464.428,774.503 464.428,774.203C464.428,774.003 464.511,773.769 464.678,773.503L466.728,770.253C466.928,769.919 467.144,769.753 467.378,769.753C467.578,769.753 467.828,769.853 468.128,770.053C469.361,770.753 470.778,771.319 472.378,771.753C473.978,772.186 475.594,772.403 477.228,772.403C479.161,772.403 480.594,772.094 481.528,771.478C482.461,770.861 482.928,769.886 482.928,768.553C482.928,767.653 482.703,766.919 482.253,766.353C481.803,765.786 481.136,765.286 480.253,764.853C479.369,764.419 478.011,763.853 476.178,763.153C474.044,762.353 472.236,761.536 470.753,760.703C469.269,759.869 468.053,758.794 467.103,757.478C466.153,756.161 465.678,754.553 465.678,752.653C465.678,749.486 466.828,747.061 469.128,745.378C471.428,743.694 474.461,742.853 478.228,742.853C483.194,742.853 486.994,743.786 489.628,745.653C490.128,746.053 490.378,746.386 490.378,746.653C490.378,746.853 490.294,747.086 490.128,747.353L488.078,750.603C487.878,750.936 487.661,751.103 487.428,751.103C487.228,751.103 486.978,751.003 486.678,750.803C484.644,749.469 482.178,748.803 479.278,748.803C475.678,748.803 473.878,750.103 473.878,752.703C473.878,753.569 474.086,754.278 474.503,754.828C474.919,755.378 475.494,755.844 476.228,756.228C476.961,756.611 478.111,757.103 479.678,757.703L481.078,758.253C483.511,759.219 485.428,760.128 486.828,760.978C488.228,761.828 489.303,762.869 490.053,764.103C490.803,765.336 491.178,766.919 491.178,768.853C491.178,771.753 490.086,774.061 487.903,775.778C485.719,777.494 482.561,778.353 478.428,778.353Z" style="fill:rgb(31,34,28);fill-rule:nonzero;"/>
                <path d="M530.528,778.353C524.728,778.353 520.236,776.828 517.053,773.778C513.869,770.728 512.278,766.336 512.278,760.603C512.278,754.836 513.836,750.436 516.953,747.403C520.069,744.369 524.528,742.853 530.328,742.853C532.761,742.853 534.969,743.094 536.953,743.578C538.936,744.061 540.611,744.753 541.978,745.653C542.311,745.886 542.478,746.153 542.478,746.453C542.478,746.719 542.378,747.003 542.178,747.303L540.428,750.353C540.194,750.719 539.961,750.903 539.728,750.903C539.528,750.903 539.244,750.803 538.878,750.603C536.744,749.403 534.228,748.803 531.328,748.803C527.894,748.803 525.228,749.794 523.328,751.778C521.428,753.761 520.478,756.703 520.478,760.603C520.478,764.536 521.469,767.486 523.453,769.453C525.436,771.419 528.144,772.403 531.578,772.403C534.711,772.403 537.344,771.803 539.478,770.603C539.844,770.403 540.128,770.303 540.328,770.303C540.561,770.303 540.794,770.486 541.028,770.853L542.978,774.203C543.111,774.436 543.178,774.636 543.178,774.803C543.178,775.003 542.978,775.253 542.578,775.553C539.978,777.419 535.961,778.353 530.528,778.353Z" style="fill:rgb(31,34,28);fill-rule:nonzero;"/>
                <path d="M561.378,778.353C555.711,778.353 551.386,776.803 548.403,773.703C545.419,770.603 543.928,766.236 543.928,760.603C543.928,754.969 545.419,750.603 548.403,747.503C551.386,744.403 555.711,742.853 561.378,742.853C567.011,742.853 571.319,744.403 574.303,747.503C577.286,750.603 578.778,754.969 578.778,760.603C578.778,766.236 577.286,770.603 574.303,773.703C571.319,776.803 567.011,778.353 561.378,778.353ZM561.378,772.403C564.411,772.403 566.703,771.411 568.253,769.428C569.803,767.444 570.578,764.503 570.578,760.603C570.578,756.703 569.803,753.761 568.253,751.778C566.703,749.794 564.411,748.803 561.378,748.803C558.311,748.803 556.003,749.794 554.453,751.778C552.903,753.761 552.128,756.703 552.128,760.603C552.128,764.503 552.903,767.444 554.453,769.428C556.003,771.411 558.311,772.403 561.378,772.403Z" style="fill:rgb(31,34,28);fill-rule:nonzero;"/>
                <path d="M585.128,777.603C584.328,777.603 583.753,777.428 583.403,777.078C583.053,776.728 582.878,776.186 582.878,775.453L582.878,745.753C582.878,745.019 583.053,744.478 583.403,744.128C583.753,743.778 584.344,743.603 585.178,743.603L588.278,743.603C588.844,743.603 589.269,743.678 589.553,743.828C589.836,743.978 590.144,744.269 590.478,744.703L604.478,764.453L604.478,745.803C604.478,745.069 604.653,744.519 605.003,744.153C605.353,743.786 605.928,743.603 606.728,743.603L610.478,743.603C611.311,743.603 611.894,743.778 612.228,744.128C612.561,744.478 612.728,745.036 612.728,745.803L612.728,775.453C612.728,776.186 612.561,776.728 612.228,777.078C611.894,777.428 611.311,777.603 610.478,777.603L607.328,777.603C606.794,777.603 606.386,777.528 606.103,777.378C605.819,777.228 605.511,776.936 605.178,776.503L591.128,756.803L591.128,775.453C591.128,776.186 590.961,776.728 590.628,777.078C590.294,777.428 589.711,777.603 588.878,777.603L585.128,777.603Z" style="fill:rgb(31,34,28);fill-rule:nonzero;"/>
                <path d="M630.878,778.353C628.278,778.353 625.786,778.078 623.403,777.528C621.019,776.978 619.094,776.203 617.628,775.203C617.128,774.836 616.878,774.503 616.878,774.203C616.878,774.003 616.961,773.769 617.128,773.503L619.178,770.253C619.378,769.919 619.594,769.753 619.828,769.753C620.028,769.753 620.278,769.853 620.578,770.053C621.811,770.753 623.228,771.319 624.828,771.753C626.428,772.186 628.044,772.403 629.678,772.403C631.611,772.403 633.044,772.094 633.978,771.478C634.911,770.861 635.378,769.886 635.378,768.553C635.378,767.653 635.153,766.919 634.703,766.353C634.253,765.786 633.586,765.286 632.703,764.853C631.819,764.419 630.461,763.853 628.628,763.153C626.494,762.353 624.686,761.536 623.203,760.703C621.719,759.869 620.503,758.794 619.553,757.478C618.603,756.161 618.128,754.553 618.128,752.653C618.128,749.486 619.278,747.061 621.578,745.378C623.878,743.694 626.911,742.853 630.678,742.853C635.644,742.853 639.444,743.786 642.078,745.653C642.578,746.053 642.828,746.386 642.828,746.653C642.828,746.853 642.744,747.086 642.578,747.353L640.528,750.603C640.328,750.936 640.111,751.103 639.878,751.103C639.678,751.103 639.428,751.003 639.128,750.803C637.094,749.469 634.628,748.803 631.728,748.803C628.128,748.803 626.328,750.103 626.328,752.703C626.328,753.569 626.536,754.278 626.953,754.828C627.369,755.378 627.944,755.844 628.678,756.228C629.411,756.611 630.561,757.103 632.128,757.703L633.528,758.253C635.961,759.219 637.878,760.128 639.278,760.978C640.678,761.828 641.753,762.869 642.503,764.103C643.253,765.336 643.628,766.919 643.628,768.853C643.628,771.753 642.536,774.061 640.353,775.778C638.169,777.494 635.011,778.353 630.878,778.353Z" style="fill:rgb(31,34,28);fill-rule:nonzero;"/>
                <path d="M663.078,778.353C660.011,778.353 657.294,777.836 654.928,776.803C652.561,775.769 650.728,774.278 649.428,772.328C648.128,770.378 647.478,768.086 647.478,765.453L647.478,745.803C647.478,745.069 647.653,744.519 648.003,744.153C648.353,743.786 648.928,743.603 649.728,743.603L653.478,743.603C654.311,743.603 654.894,743.778 655.228,744.128C655.561,744.478 655.728,745.036 655.728,745.803L655.728,765.603C655.728,767.769 656.378,769.444 657.678,770.628C658.978,771.811 660.778,772.403 663.078,772.403C665.378,772.403 667.169,771.811 668.453,770.628C669.736,769.444 670.378,767.769 670.378,765.603L670.378,745.803C670.378,745.069 670.553,744.519 670.903,744.153C671.253,743.786 671.828,743.603 672.628,743.603L676.378,743.603C677.211,743.603 677.803,743.786 678.153,744.153C678.503,744.519 678.678,745.069 678.678,745.803L678.678,765.453C678.678,768.086 678.019,770.378 676.703,772.328C675.386,774.278 673.553,775.769 671.203,776.803C668.853,777.836 666.144,778.353 663.078,778.353Z" style="fill:rgb(31,34,28);fill-rule:nonzero;"/>
                <path d="M685.778,777.603C684.978,777.603 684.403,777.428 684.053,777.078C683.703,776.728 683.528,776.186 683.528,775.453L683.528,745.803C683.528,745.069 683.703,744.519 684.053,744.153C684.403,743.786 684.978,743.603 685.778,743.603L689.528,743.603C690.361,743.603 690.944,743.778 691.278,744.128C691.611,744.478 691.778,745.036 691.778,745.803L691.778,771.553L705.878,771.553C706.678,771.553 707.228,771.719 707.528,772.053C707.828,772.386 707.978,772.936 707.978,773.703L707.978,775.503C707.978,776.269 707.828,776.811 707.528,777.128C707.228,777.444 706.678,777.603 705.878,777.603L685.778,777.603Z" style="fill:rgb(31,34,28);fill-rule:nonzero;"/>
                <path d="M714.928,777.603C714.094,777.603 713.503,777.428 713.153,777.078C712.803,776.728 712.628,776.186 712.628,775.453L712.628,749.703L704.428,749.703C703.628,749.703 703.078,749.544 702.778,749.228C702.478,748.911 702.328,748.369 702.328,747.603L702.328,745.753C702.328,744.986 702.478,744.436 702.778,744.103C703.078,743.769 703.628,743.603 704.428,743.603L729.128,743.603C729.928,743.603 730.486,743.769 730.803,744.103C731.119,744.436 731.278,744.986 731.278,745.753L731.278,747.603C731.278,748.336 731.119,748.869 730.803,749.203C730.486,749.536 729.928,749.703 729.128,749.703L720.928,749.703L720.928,775.453C720.928,776.186 720.753,776.728 720.403,777.078C720.053,777.428 719.461,777.603 718.628,777.603L714.928,777.603Z" style="fill:rgb(31,34,28);fill-rule:nonzero;"/>
                <path d="M736.628,777.603C735.828,777.603 735.253,777.428 734.903,777.078C734.553,776.728 734.378,776.186 734.378,775.453L734.378,745.803C734.378,745.069 734.553,744.519 734.903,744.153C735.253,743.786 735.828,743.603 736.628,743.603L740.378,743.603C741.211,743.603 741.794,743.778 742.128,744.128C742.461,744.478 742.628,745.036 742.628,745.803L742.628,775.453C742.628,776.186 742.461,776.728 742.128,777.078C741.794,777.428 741.211,777.603 740.378,777.603L736.628,777.603Z" style="fill:rgb(31,34,28);fill-rule:nonzero;"/>
                <path d="M749.978,777.603C749.178,777.603 748.603,777.428 748.253,777.078C747.903,776.728 747.728,776.186 747.728,775.453L747.728,745.753C747.728,745.019 747.903,744.478 748.253,744.128C748.603,743.778 749.194,743.603 750.028,743.603L753.128,743.603C753.694,743.603 754.119,743.678 754.403,743.828C754.686,743.978 754.994,744.269 755.328,744.703L769.328,764.453L769.328,745.803C769.328,745.069 769.503,744.519 769.853,744.153C770.203,743.786 770.778,743.603 771.578,743.603L775.328,743.603C776.161,743.603 776.744,743.778 777.078,744.128C777.411,744.478 777.578,745.036 777.578,745.803L777.578,775.453C777.578,776.186 777.411,776.728 777.078,777.078C776.744,777.428 776.161,777.603 775.328,777.603L772.178,777.603C771.644,777.603 771.236,777.528 770.953,777.378C770.669,777.228 770.361,776.936 770.028,776.503L755.978,756.803L755.978,775.453C755.978,776.186 755.811,776.728 755.478,777.078C755.144,777.428 754.561,777.603 753.728,777.603L749.978,777.603Z" style="fill:rgb(31,34,28);fill-rule:nonzero;"/>
                <path d="M799.928,778.353C794.128,778.353 789.636,776.828 786.453,773.778C783.269,770.728 781.678,766.336 781.678,760.603C781.678,754.869 783.278,750.478 786.478,747.428C789.678,744.378 794.161,742.853 799.928,742.853C802.361,742.853 804.594,743.094 806.628,743.578C808.661,744.061 810.344,744.753 811.678,745.653C812.044,745.886 812.228,746.153 812.228,746.453C812.228,746.586 812.144,746.819 811.978,747.153L810.078,750.353C809.844,750.719 809.611,750.903 809.378,750.903C809.211,750.903 808.944,750.803 808.578,750.603C806.378,749.403 803.844,748.803 800.978,748.803C797.511,748.803 794.794,749.786 792.828,751.753C790.861,753.719 789.878,756.669 789.878,760.603C789.878,764.569 790.794,767.519 792.628,769.453C794.461,771.386 797.044,772.353 800.378,772.353C801.444,772.353 802.494,772.269 803.528,772.103C804.561,771.936 805.394,771.703 806.028,771.403L806.028,763.703L800.578,763.703C799.778,763.703 799.228,763.544 798.928,763.228C798.628,762.911 798.478,762.369 798.478,761.603L798.478,759.803C798.478,759.069 798.628,758.544 798.928,758.228C799.228,757.911 799.778,757.753 800.578,757.753L811.178,757.753C812.111,757.753 812.769,757.969 813.153,758.403C813.536,758.836 813.728,759.503 813.728,760.403L813.728,773.103C813.728,773.669 813.661,774.103 813.528,774.403C813.394,774.703 813.128,774.986 812.728,775.253C809.494,777.319 805.228,778.353 799.928,778.353Z" style="fill:rgb(31,34,28);fill-rule:nonzero;"/>
                <path d="M332.253,827.603C331.653,827.603 331.353,827.319 331.353,826.753C331.353,826.519 331.403,826.253 331.503,825.953L344.453,795.103C344.686,794.536 344.944,794.144 345.228,793.928C345.511,793.711 345.919,793.603 346.453,793.603L350.103,793.603C350.636,793.603 351.036,793.711 351.303,793.928C351.569,794.144 351.819,794.536 352.053,795.103L365.003,825.953C365.103,826.253 365.153,826.519 365.153,826.753C365.153,827.319 364.853,827.603 364.253,827.603L358.203,827.603C357.736,827.603 357.394,827.528 357.178,827.378C356.961,827.228 356.769,826.953 356.603,826.553L354.303,820.653L342.153,820.653L339.903,826.553C339.736,826.953 339.544,827.228 339.328,827.378C339.111,827.528 338.769,827.603 338.303,827.603L332.253,827.603ZM352.403,814.903L348.253,804.103L344.053,814.903L352.403,814.903Z" style="fill:rgb(31,34,28);fill-rule:nonzero;"/>
                <path d="M371.553,827.603C370.753,827.603 370.178,827.428 369.828,827.078C369.478,826.728 369.303,826.186 369.303,825.453L369.303,795.803C369.303,795.069 369.478,794.519 369.828,794.153C370.178,793.786 370.753,793.603 371.553,793.603L384.203,793.603C392.669,793.603 396.903,797.303 396.903,804.703C396.903,807.069 396.403,809.078 395.403,810.728C394.403,812.378 392.919,813.636 390.953,814.503L396.203,826.003C396.303,826.236 396.353,826.469 396.353,826.703C396.353,827.303 396.003,827.603 395.303,827.603L389.753,827.603C389.286,827.603 388.936,827.544 388.703,827.428C388.469,827.311 388.269,827.053 388.103,826.653L383.503,815.653L377.553,815.653L377.553,825.453C377.553,826.186 377.386,826.728 377.053,827.078C376.719,827.428 376.136,827.603 375.303,827.603L371.553,827.603ZM383.003,809.703C384.903,809.703 386.328,809.303 387.278,808.503C388.228,807.703 388.703,806.436 388.703,804.703C388.703,802.969 388.269,801.703 387.403,800.903C386.536,800.103 385.236,799.703 383.503,799.703L377.553,799.703L377.553,809.703L383.003,809.703Z" style="fill:rgb(31,34,28);fill-rule:nonzero;"/>
                <path d="M414.053,828.353C411.453,828.353 408.961,828.078 406.578,827.528C404.194,826.978 402.269,826.203 400.803,825.203C400.303,824.836 400.053,824.503 400.053,824.203C400.053,824.003 400.136,823.769 400.303,823.503L402.353,820.253C402.553,819.919 402.769,819.753 403.003,819.753C403.203,819.753 403.453,819.853 403.753,820.053C404.986,820.753 406.403,821.319 408.003,821.753C409.603,822.186 411.219,822.403 412.853,822.403C414.786,822.403 416.219,822.094 417.153,821.478C418.086,820.861 418.553,819.886 418.553,818.553C418.553,817.653 418.328,816.919 417.878,816.353C417.428,815.786 416.761,815.286 415.878,814.853C414.994,814.419 413.636,813.853 411.803,813.153C409.669,812.353 407.861,811.536 406.378,810.703C404.894,809.869 403.678,808.794 402.728,807.478C401.778,806.161 401.303,804.553 401.303,802.653C401.303,799.486 402.453,797.061 404.753,795.378C407.053,793.694 410.086,792.853 413.853,792.853C418.819,792.853 422.619,793.786 425.253,795.653C425.753,796.053 426.003,796.386 426.003,796.653C426.003,796.853 425.919,797.086 425.753,797.353L423.703,800.603C423.503,800.936 423.286,801.103 423.053,801.103C422.853,801.103 422.603,801.003 422.303,800.803C420.269,799.469 417.803,798.803 414.903,798.803C411.303,798.803 409.503,800.103 409.503,802.703C409.503,803.569 409.711,804.278 410.128,804.828C410.544,805.378 411.119,805.844 411.853,806.228C412.586,806.611 413.736,807.103 415.303,807.703L416.703,808.253C419.136,809.219 421.053,810.128 422.453,810.978C423.853,811.828 424.928,812.869 425.678,814.103C426.428,815.336 426.803,816.919 426.803,818.853C426.803,821.753 425.711,824.061 423.528,825.778C421.344,827.494 418.186,828.353 414.053,828.353Z" style="fill:rgb(31,34,28);fill-rule:nonzero;"/>
                <path d="M433.153,827.603C432.353,827.603 431.778,827.428 431.428,827.078C431.078,826.728 430.903,826.186 430.903,825.453L430.903,795.803C430.903,795.069 431.078,794.519 431.428,794.153C431.778,793.786 432.353,793.603 433.153,793.603L453.903,793.603C454.703,793.603 455.253,793.761 455.553,794.078C455.853,794.394 456.003,794.936 456.003,795.703L456.003,797.553C456.003,798.319 455.853,798.869 455.553,799.203C455.253,799.536 454.703,799.703 453.903,799.703L439.153,799.703L439.153,807.603L449.453,807.603C450.253,807.603 450.803,807.761 451.103,808.078C451.403,808.394 451.553,808.936 451.553,809.703L451.553,811.453C451.553,812.219 451.403,812.769 451.103,813.103C450.803,813.436 450.253,813.603 449.453,813.603L439.153,813.603L439.153,821.553L453.853,821.553C454.653,821.553 455.203,821.719 455.503,822.053C455.803,822.386 455.953,822.936 455.953,823.703L455.953,825.503C455.953,826.269 455.803,826.811 455.503,827.128C455.203,827.444 454.653,827.603 453.853,827.603L433.153,827.603Z" style="fill:rgb(31,34,28);fill-rule:nonzero;"/>
                <path d="M461.853,827.603C461.053,827.603 460.478,827.428 460.128,827.078C459.778,826.728 459.603,826.186 459.603,825.453L459.603,795.753C459.603,795.019 459.778,794.478 460.128,794.128C460.478,793.778 461.069,793.603 461.903,793.603L465.003,793.603C465.569,793.603 465.994,793.678 466.278,793.828C466.561,793.978 466.869,794.269 467.203,794.703L481.203,814.453L481.203,795.803C481.203,795.069 481.378,794.519 481.728,794.153C482.078,793.786 482.653,793.603 483.453,793.603L487.203,793.603C488.036,793.603 488.619,793.778 488.953,794.128C489.286,794.478 489.453,795.036 489.453,795.803L489.453,825.453C489.453,826.186 489.286,826.728 488.953,827.078C488.619,827.428 488.036,827.603 487.203,827.603L484.053,827.603C483.519,827.603 483.111,827.528 482.828,827.378C482.544,827.228 482.236,826.936 481.903,826.503L467.853,806.803L467.853,825.453C467.853,826.186 467.686,826.728 467.353,827.078C467.019,827.428 466.436,827.603 465.603,827.603L461.853,827.603Z" style="fill:rgb(31,34,28);fill-rule:nonzero;"/>
                <path d="M529.003,828.353C523.336,828.353 519.011,826.803 516.028,823.703C513.044,820.603 511.553,816.236 511.553,810.603C511.553,804.969 513.044,800.603 516.028,797.503C519.011,794.403 523.336,792.853 529.003,792.853C534.636,792.853 538.944,794.403 541.928,797.503C544.911,800.603 546.403,804.969 546.403,810.603C546.403,816.236 544.911,820.603 541.928,823.703C538.944,826.803 534.636,828.353 529.003,828.353ZM529.003,822.403C532.036,822.403 534.328,821.411 535.878,819.428C537.428,817.444 538.203,814.503 538.203,810.603C538.203,806.703 537.428,803.761 535.878,801.778C534.328,799.794 532.036,798.803 529.003,798.803C525.936,798.803 523.628,799.794 522.078,801.778C520.528,803.761 519.753,806.703 519.753,810.603C519.753,814.503 520.528,817.444 522.078,819.428C523.628,821.411 525.936,822.403 529.003,822.403Z" style="fill:rgb(31,34,28);fill-rule:nonzero;"/>
                <path d="M561.053,827.603C560.519,827.603 560.119,827.503 559.853,827.303C559.586,827.103 559.336,826.719 559.103,826.153L546.453,795.253C546.353,794.953 546.303,794.686 546.303,794.453C546.303,793.886 546.603,793.603 547.203,793.603L553.203,793.603C553.669,793.603 554.028,793.703 554.278,793.903C554.528,794.103 554.719,794.386 554.853,794.753L562.853,816.203L570.853,794.753C571.119,793.986 571.686,793.603 572.553,793.603L578.553,793.603C579.153,793.603 579.453,793.886 579.453,794.453C579.453,794.686 579.403,794.953 579.303,795.253L566.703,826.153C566.469,826.719 566.211,827.103 565.928,827.303C565.644,827.503 565.236,827.603 564.703,827.603L561.053,827.603Z" style="fill:rgb(31,34,28);fill-rule:nonzero;"/>
                <path d="M592.903,828.353C590.303,828.353 587.811,828.078 585.428,827.528C583.044,826.978 581.119,826.203 579.653,825.203C579.153,824.836 578.903,824.503 578.903,824.203C578.903,824.003 578.986,823.769 579.153,823.503L581.203,820.253C581.403,819.919 581.619,819.753 581.853,819.753C582.053,819.753 582.303,819.853 582.603,820.053C583.836,820.753 585.253,821.319 586.853,821.753C588.453,822.186 590.069,822.403 591.703,822.403C593.636,822.403 595.069,822.094 596.003,821.478C596.936,820.861 597.403,819.886 597.403,818.553C597.403,817.653 597.178,816.919 596.728,816.353C596.278,815.786 595.611,815.286 594.728,814.853C593.844,814.419 592.486,813.853 590.653,813.153C588.519,812.353 586.711,811.536 585.228,810.703C583.744,809.869 582.528,808.794 581.578,807.478C580.628,806.161 580.153,804.553 580.153,802.653C580.153,799.486 581.303,797.061 583.603,795.378C585.903,793.694 588.936,792.853 592.703,792.853C597.669,792.853 601.469,793.786 604.103,795.653C604.603,796.053 604.853,796.386 604.853,796.653C604.853,796.853 604.769,797.086 604.603,797.353L602.553,800.603C602.353,800.936 602.136,801.103 601.903,801.103C601.703,801.103 601.453,801.003 601.153,800.803C599.119,799.469 596.653,798.803 593.753,798.803C590.153,798.803 588.353,800.103 588.353,802.703C588.353,803.569 588.561,804.278 588.978,804.828C589.394,805.378 589.969,805.844 590.703,806.228C591.436,806.611 592.586,807.103 594.153,807.703L595.553,808.253C597.986,809.219 599.903,810.128 601.303,810.978C602.703,811.828 603.778,812.869 604.528,814.103C605.278,815.336 605.653,816.919 605.653,818.853C605.653,821.753 604.561,824.061 602.378,825.778C600.194,827.494 597.036,828.353 592.903,828.353Z" style="fill:rgb(31,34,28);fill-rule:nonzero;"/>
                <path d="M612.003,827.603C611.203,827.603 610.628,827.428 610.278,827.078C609.928,826.728 609.753,826.186 609.753,825.453L609.753,795.803C609.753,795.069 609.928,794.519 610.278,794.153C610.628,793.786 611.203,793.603 612.003,793.603L632.753,793.603C633.553,793.603 634.103,793.761 634.403,794.078C634.703,794.394 634.853,794.936 634.853,795.703L634.853,797.553C634.853,798.319 634.703,798.869 634.403,799.203C634.103,799.536 633.553,799.703 632.753,799.703L618.003,799.703L618.003,807.603L628.303,807.603C629.103,807.603 629.653,807.761 629.953,808.078C630.253,808.394 630.403,808.936 630.403,809.703L630.403,811.453C630.403,812.219 630.253,812.769 629.953,813.103C629.653,813.436 629.103,813.603 628.303,813.603L618.003,813.603L618.003,821.553L632.703,821.553C633.503,821.553 634.053,821.719 634.353,822.053C634.653,822.386 634.803,822.936 634.803,823.703L634.803,825.503C634.803,826.269 634.653,826.811 634.353,827.128C634.053,827.444 633.503,827.603 632.703,827.603L612.003,827.603Z" style="fill:rgb(31,34,28);fill-rule:nonzero;"/>
                <path d="M640.703,827.603C639.903,827.603 639.328,827.428 638.978,827.078C638.628,826.728 638.453,826.186 638.453,825.453L638.453,795.803C638.453,795.069 638.628,794.519 638.978,794.153C639.328,793.786 639.903,793.603 640.703,793.603L653.203,793.603C661.769,793.603 666.053,797.436 666.053,805.103C666.053,812.736 661.769,816.553 653.203,816.553L646.703,816.553L646.703,825.453C646.703,826.186 646.536,826.728 646.203,827.078C645.869,827.428 645.286,827.603 644.453,827.603L640.703,827.603ZM652.653,810.503C656.119,810.503 657.853,808.703 657.853,805.103C657.853,801.503 656.119,799.703 652.653,799.703L646.753,799.703L646.753,810.503L652.653,810.503Z" style="fill:rgb(31,34,28);fill-rule:nonzero;"/>
                <path d="M680.503,827.603C679.703,827.603 679.128,827.428 678.778,827.078C678.428,826.728 678.253,826.186 678.253,825.453L678.253,816.003L666.153,795.253C665.986,794.986 665.903,794.719 665.903,794.453C665.903,794.219 665.994,794.019 666.178,793.853C666.361,793.686 666.603,793.603 666.903,793.603L672.903,793.603C673.369,793.603 673.703,793.678 673.903,793.828C674.103,793.978 674.303,794.236 674.503,794.603L682.403,808.453L690.303,794.603C690.503,794.236 690.703,793.978 690.903,793.828C691.103,793.678 691.419,793.603 691.853,793.603L697.903,793.603C698.203,793.603 698.444,793.686 698.628,793.853C698.811,794.019 698.903,794.219 698.903,794.453C698.903,794.719 698.819,794.986 698.653,795.253L686.553,816.053L686.553,825.453C686.553,826.186 686.378,826.728 686.028,827.078C685.678,827.428 685.086,827.603 684.253,827.603L680.503,827.603Z" style="fill:rgb(31,34,28);fill-rule:nonzero;"/>
                <path d="M695.203,827.603C694.603,827.603 694.303,827.319 694.303,826.753C694.303,826.519 694.353,826.253 694.453,825.953L707.403,795.103C707.636,794.536 707.894,794.144 708.178,793.928C708.461,793.711 708.869,793.603 709.403,793.603L713.053,793.603C713.586,793.603 713.986,793.711 714.253,793.928C714.519,794.144 714.769,794.536 715.003,795.103L727.953,825.953C728.053,826.253 728.103,826.519 728.103,826.753C728.103,827.319 727.803,827.603 727.203,827.603L721.153,827.603C720.686,827.603 720.344,827.528 720.128,827.378C719.911,827.228 719.719,826.953 719.553,826.553L717.253,820.653L705.103,820.653L702.853,826.553C702.686,826.953 702.494,827.228 702.278,827.378C702.061,827.528 701.719,827.603 701.253,827.603L695.203,827.603ZM715.353,814.903L711.203,804.103L707.003,814.903L715.353,814.903Z" style="fill:rgb(31,34,28);fill-rule:nonzero;"/>
                <path d="M734.503,827.603C733.703,827.603 733.128,827.428 732.778,827.078C732.428,826.728 732.253,826.186 732.253,825.453L732.253,795.753C732.253,795.019 732.428,794.478 732.778,794.128C733.128,793.778 733.719,793.603 734.553,793.603L737.653,793.603C738.219,793.603 738.644,793.678 738.928,793.828C739.211,793.978 739.519,794.269 739.853,794.703L753.853,814.453L753.853,795.803C753.853,795.069 754.028,794.519 754.378,794.153C754.728,793.786 755.303,793.603 756.103,793.603L759.853,793.603C760.686,793.603 761.269,793.778 761.603,794.128C761.936,794.478 762.103,795.036 762.103,795.803L762.103,825.453C762.103,826.186 761.936,826.728 761.603,827.078C761.269,827.428 760.686,827.603 759.853,827.603L756.703,827.603C756.169,827.603 755.761,827.528 755.478,827.378C755.194,827.228 754.886,826.936 754.553,826.503L740.503,806.803L740.503,825.453C740.503,826.186 740.336,826.728 740.003,827.078C739.669,827.428 739.086,827.603 738.253,827.603L734.503,827.603Z" style="fill:rgb(31,34,28);fill-rule:nonzero;"/>
                <path d="M798.253,828.353C795.653,828.353 793.161,828.078 790.778,827.528C788.394,826.978 786.469,826.203 785.003,825.203C784.503,824.836 784.253,824.503 784.253,824.203C784.253,824.003 784.336,823.769 784.503,823.503L786.553,820.253C786.753,819.919 786.969,819.753 787.203,819.753C787.403,819.753 787.653,819.853 787.953,820.053C789.186,820.753 790.603,821.319 792.203,821.753C793.803,822.186 795.419,822.403 797.053,822.403C798.986,822.403 800.419,822.094 801.353,821.478C802.286,820.861 802.753,819.886 802.753,818.553C802.753,817.653 802.528,816.919 802.078,816.353C801.628,815.786 800.961,815.286 800.078,814.853C799.194,814.419 797.836,813.853 796.003,813.153C793.869,812.353 792.061,811.536 790.578,810.703C789.094,809.869 787.878,808.794 786.928,807.478C785.978,806.161 785.503,804.553 785.503,802.653C785.503,799.486 786.653,797.061 788.953,795.378C791.253,793.694 794.286,792.853 798.053,792.853C803.019,792.853 806.819,793.786 809.453,795.653C809.953,796.053 810.203,796.386 810.203,796.653C810.203,796.853 810.119,797.086 809.953,797.353L807.903,800.603C807.703,800.936 807.486,801.103 807.253,801.103C807.053,801.103 806.803,801.003 806.503,800.803C804.469,799.469 802.003,798.803 799.103,798.803C795.503,798.803 793.703,800.103 793.703,802.703C793.703,803.569 793.911,804.278 794.328,804.828C794.744,805.378 795.319,805.844 796.053,806.228C796.786,806.611 797.936,807.103 799.503,807.703L800.903,808.253C803.336,809.219 805.253,810.128 806.653,810.978C808.053,811.828 809.128,812.869 809.878,814.103C810.628,815.336 811.003,816.919 811.003,818.853C811.003,821.753 809.911,824.061 807.728,825.778C805.544,827.494 802.386,828.353 798.253,828.353Z" style="fill:rgb(31,34,28);fill-rule:nonzero;"/>
                <path d="M842.953,825.953C843.153,826.186 843.253,826.453 843.253,826.753C843.253,827.319 842.953,827.603 842.353,827.603L836.103,827.603C835.703,827.603 835.394,827.561 835.178,827.478C834.961,827.394 834.753,827.236 834.553,827.003L823.503,812.503L823.353,812.303L823.353,825.453C823.353,826.186 823.186,826.728 822.853,827.078C822.519,827.428 821.936,827.603 821.103,827.603L817.353,827.603C816.553,827.603 815.978,827.428 815.628,827.078C815.278,826.728 815.103,826.186 815.103,825.453L815.103,795.803C815.103,795.069 815.278,794.519 815.628,794.153C815.978,793.786 816.553,793.603 817.353,793.603L821.103,793.603C821.936,793.603 822.519,793.778 822.853,794.128C823.186,794.478 823.353,795.036 823.353,795.803L823.353,808.703L823.503,808.503L834.203,794.253C834.403,793.986 834.611,793.811 834.828,793.728C835.044,793.644 835.386,793.603 835.853,793.603L842.003,793.603C842.603,793.603 842.903,793.886 842.903,794.453C842.903,794.719 842.803,794.986 842.603,795.253L830.753,810.503L842.953,825.953Z" style="fill:rgb(31,34,28);fill-rule:nonzero;"/>
                <path d="M845.153,827.603C844.553,827.603 844.253,827.319 844.253,826.753C844.253,826.519 844.303,826.253 844.403,825.953L857.353,795.103C857.586,794.536 857.844,794.144 858.128,793.928C858.411,793.711 858.819,793.603 859.353,793.603L863.003,793.603C863.536,793.603 863.936,793.711 864.203,793.928C864.469,794.144 864.719,794.536 864.953,795.103L877.903,825.953C878.003,826.253 878.053,826.519 878.053,826.753C878.053,827.319 877.753,827.603 877.153,827.603L871.103,827.603C870.636,827.603 870.294,827.528 870.078,827.378C869.861,827.228 869.669,826.953 869.503,826.553L867.203,820.653L855.053,820.653L852.803,826.553C852.636,826.953 852.444,827.228 852.228,827.378C852.011,827.528 851.669,827.603 851.203,827.603L845.153,827.603ZM865.303,814.903L861.153,804.103L856.953,814.903L865.303,814.903Z" style="fill:rgb(31,34,28);fill-rule:nonzero;"/>
            </g>
        </g>
    </g>
    <defs>
        <linearGradient id="_Linear1" x1="0" y1="0" x2="1" y2="0" gradientUnits="userSpaceOnUse" gradientTransform="matrix(135.824,-132.365,132.365,135.824,1069.52,1359.71)"><stop offset="0" style="stop-color:rgb(55,172,223);stop-opacity:1"/><stop offset="1" style="stop-color:rgb(86,116,171);stop-opacity:1"/></linearGradient>
        <linearGradient id="_Linear2" x1="0" y1="0" x2="1" y2="0" gradientUnits="userSpaceOnUse" gradientTransform="matrix(-97.6922,-88.1216,88.1216,-97.6922,1594.16,1376.49)"><stop offset="0" style="stop-color:rgb(86,116,171);stop-opacity:1"/><stop offset="1" style="stop-color:rgb(55,172,223);stop-opacity:1"/></linearGradient>
        <linearGradient id="_Linear3" x1="0" y1="0" x2="1" y2="0" gradientUnits="userSpaceOnUse" gradientTransform="matrix(-143.505,-159.949,159.949,-143.505,1463.56,1448.23)"><stop offset="0" style="stop-color:rgb(86,116,171);stop-opacity:1"/><stop offset="1" style="stop-color:rgb(55,172,223);stop-opacity:1"/></linearGradient>
        <linearGradient id="_Linear4" x1="0" y1="0" x2="1" y2="0" gradientUnits="userSpaceOnUse" gradientTransform="matrix(88.2037,88.2037,-88.2037,88.2037,1231.85,1376.57)"><stop offset="0" style="stop-color:rgb(86,116,171);stop-opacity:1"/><stop offset="1" style="stop-color:rgb(55,172,223);stop-opacity:1"/></linearGradient>
        <linearGradient id="_Linear5" x1="0" y1="0" x2="1" y2="0" gradientUnits="userSpaceOnUse" gradientTransform="matrix(-154.5,-146.392,146.392,-154.5,1212.44,1522.96)"><stop offset="0" style="stop-color:rgb(86,116,171);stop-opacity:1"/><stop offset="1" style="stop-color:rgb(55,172,223);stop-opacity:1"/></linearGradient>
        <linearGradient id="_Linear6" x1="0" y1="0" x2="1" y2="0" gradientUnits="userSpaceOnUse" gradientTransform="matrix(77.2094,-88.518,88.518,77.2094,1496.47,1465.01)"><stop offset="0" style="stop-color:rgb(55,172,223);stop-opacity:1"/><stop offset="1" style="stop-color:rgb(86,116,171);stop-opacity:1"/></linearGradient>
        <linearGradient id="_Linear7" x1="0" y1="0" x2="1" y2="0" gradientUnits="userSpaceOnUse" gradientTransform="matrix(77.3989,-0.120885,0.120885,77.3989,1413.72,1332.59)"><stop offset="0" style="stop-color:rgb(55,172,223);stop-opacity:1"/><stop offset="1" style="stop-color:rgb(86,116,171);stop-opacity:1"/></linearGradient>
        <linearGradient id="_Linear8" x1="0" y1="0" x2="1" y2="0" gradientUnits="userSpaceOnUse" gradientTransform="matrix(65.4642,-61.1069,61.1069,65.4642,1231.85,1376.57)"><stop offset="0" style="stop-color:rgb(55,172,223);stop-opacity:1"/><stop offset="1" style="stop-color:rgb(86,116,171);stop-opacity:1"/></linearGradient>
        <linearGradient id="_Linear9" x1="0" y1="0" x2="1" y2="0" gradientUnits="userSpaceOnUse" gradientTransform="matrix(-123.782,125.542,-125.542,-123.782,1206.12,1228.17)"><stop offset="0" style="stop-color:rgb(55,172,223);stop-opacity:1"/><stop offset="1" style="stop-color:rgb(86,116,171);stop-opacity:1"/></linearGradient>
    </defs>
</svg>
