<?xml version="1.0" encoding="UTF-8" standalone="no"?><!DOCTYPE svg PUBLIC "-//W3C//DTD SVG 1.1//EN" "http://www.w3.org/Graphics/SVG/1.1/DTD/svg11.dtd"><svg width="100%" height="100%" viewBox="0 0 1298 553" version="1.1" xmlns="http://www.w3.org/2000/svg" xmlns:xlink="http://www.w3.org/1999/xlink" xml:space="preserve" xmlns:serif="http://www.serif.com/" style="fill-rule:evenodd;clip-rule:evenodd;stroke-linejoin:round;stroke-miterlimit:2;"><g><path d="M692.442,264.775l-87.962,87.962l-98.895,0.01l87.971,-87.972l98.886,0Z" style="fill:url(#_Linear1);"/><path d="M874.77,88.6l87.972,87.972l-98.886,-0l-88.203,-88.204l99.117,0.232Z" style="fill:url(#_Linear2);"/><path d="M698.131,88.368l126.964,126.965l-49.442,49.442l-176.64,-176.175l99.118,-0.232Z" style="fill:url(#_Linear3);"/><path d="M599.013,265.007l-87.972,-88.435l98.804,-0.083l88.053,88.518l-98.885,0Z" style="fill:url(#_Linear4);"/><path d="M511.063,353l-176.429,-176.428l98.886,-0l126.964,126.964l-49.421,49.464Z" style="fill:url(#_Linear5);"/><path d="M962.742,176.572l-88.204,88.203l-98.885,0l88.203,-88.203l98.886,-0Z" style="fill:url(#_Linear6);"/><path d="M736.892,127.129l38.761,-38.761l49.442,49.443l-38.751,38.751l-49.452,-49.433Z" style="fill:url(#_Linear7);"/><path d="M511.041,176.572l87.972,-87.972l49.675,49.211l-38.751,38.751l-98.896,0.01Z" style="fill:url(#_Linear8);"/><path d="M334.634,176.572l176.572,-176.572l98.721,0.164l-176.407,176.408l-98.886,-0Z" style="fill:url(#_Linear9);"/><path d="M2.793,550.282c-1.862,-0 -2.793,-0.88 -2.793,-2.639c0,-0.724 0.155,-1.552 0.466,-2.483l40.193,-95.751c0.725,-1.759 1.526,-2.974 2.406,-3.647c0.879,-0.672 2.147,-1.009 3.802,-1.009l11.329,0c1.655,0 2.897,0.337 3.724,1.009c0.828,0.673 1.604,1.888 2.328,3.647l40.194,95.751c0.31,0.931 0.465,1.759 0.465,2.483c0,1.759 -0.931,2.639 -2.793,2.639l-18.778,-0c-1.448,-0 -2.509,-0.233 -3.181,-0.699c-0.673,-0.465 -1.268,-1.319 -1.785,-2.56l-7.138,-18.313l-37.711,0l-6.984,18.313c-0.517,1.241 -1.112,2.095 -1.784,2.56c-0.673,0.466 -1.733,0.699 -3.182,0.699l-18.778,-0Zm62.541,-39.418l-12.88,-33.521l-13.036,33.521l25.916,-0Z" style="fill:#1f221c;fill-rule:nonzero;"/><path d="M124.772,550.282c-2.483,-0 -4.268,-0.544 -5.354,-1.63c-1.087,-1.086 -1.63,-2.767 -1.63,-5.044l0,-92.026c0,-2.276 0.543,-3.984 1.63,-5.122c1.086,-1.138 2.871,-1.707 5.354,-1.707l39.262,0c26.279,0 39.418,11.484 39.418,34.452c0,7.346 -1.552,13.579 -4.656,18.7c-3.103,5.122 -7.707,9.027 -13.811,11.717l16.294,35.694c0.311,0.724 0.466,1.448 0.466,2.172c0,1.862 -1.086,2.794 -3.259,2.794l-17.226,-0c-1.448,-0 -2.535,-0.182 -3.259,-0.544c-0.724,-0.362 -1.345,-1.164 -1.862,-2.405l-14.277,-34.141l-18.468,-0l0,30.416c0,2.277 -0.517,3.958 -1.552,5.044c-1.034,1.086 -2.845,1.63 -5.431,1.63l-11.639,-0Zm35.538,-55.558c5.897,0 10.32,-1.241 13.268,-3.724c2.949,-2.483 4.423,-6.415 4.423,-11.795c0,-5.38 -1.345,-9.311 -4.035,-11.794c-2.69,-2.483 -6.725,-3.725 -12.104,-3.725l-18.468,0l0,31.038l16.916,0Z" style="fill:#1f221c;fill-rule:nonzero;"/><path d="M256.682,552.609c-8.07,0 -15.804,-0.853 -23.201,-2.56c-7.397,-1.707 -13.372,-4.113 -17.924,-7.216c-1.552,-1.139 -2.328,-2.173 -2.328,-3.104c-0,-0.621 0.259,-1.345 0.776,-2.173l6.363,-10.087c0.62,-1.035 1.293,-1.552 2.017,-1.552c0.621,-0 1.397,0.31 2.328,0.931c3.828,2.173 8.225,3.932 13.191,5.276c4.966,1.345 9.984,2.018 15.053,2.018c6.001,-0 10.45,-0.957 13.346,-2.871c2.897,-1.914 4.346,-4.94 4.346,-9.079c-0,-2.793 -0.699,-5.069 -2.095,-6.828c-1.397,-1.759 -3.466,-3.311 -6.208,-4.656c-2.742,-1.344 -6.957,-3.103 -12.648,-5.276c-6.621,-2.483 -12.234,-5.018 -16.838,-7.604c-4.604,-2.587 -8.38,-5.923 -11.328,-10.01c-2.949,-4.086 -4.423,-9.078 -4.423,-14.976c-0,-9.828 3.569,-17.355 10.708,-22.579c7.138,-5.225 16.553,-7.837 28.244,-7.837c15.415,-0 27.21,2.896 35.383,8.69c1.552,1.242 2.328,2.276 2.328,3.104c-0,0.621 -0.259,1.345 -0.776,2.173l-6.363,10.087c-0.621,1.034 -1.293,1.552 -2.017,1.552c-0.621,-0 -1.397,-0.311 -2.328,-0.931c-6.311,-4.139 -13.967,-6.208 -22.968,-6.208c-11.174,-0 -16.76,4.035 -16.76,12.105c-0,2.69 0.646,4.888 1.939,6.595c1.294,1.707 3.078,3.156 5.354,4.345c2.277,1.19 5.846,2.716 10.708,4.579l4.346,1.707c7.552,3 13.501,5.819 17.846,8.457c4.346,2.639 7.682,5.872 10.01,9.7c2.328,3.828 3.492,8.742 3.492,14.743c-0,9 -3.388,16.165 -10.165,21.493c-6.777,5.328 -16.579,7.992 -29.408,7.992Z" style="fill:#1f221c;fill-rule:nonzero;"/><path d="M418.388,552.609c-18.002,0 -31.943,-4.733 -41.823,-14.199c-9.88,-9.467 -14.821,-23.098 -14.821,-40.893c0,-17.898 4.837,-31.555 14.511,-40.969c9.673,-9.415 23.511,-14.122 41.512,-14.122c7.553,-0 14.407,0.75 20.563,2.25c6.156,1.5 11.355,3.647 15.596,6.44c1.035,0.724 1.552,1.552 1.552,2.483c0,0.828 -0.31,1.707 -0.931,2.638l-5.431,9.467c-0.725,1.138 -1.449,1.707 -2.173,1.707c-0.621,-0 -1.5,-0.31 -2.638,-0.931c-6.622,-3.725 -14.433,-5.587 -23.434,-5.587c-10.656,-0 -18.933,3.078 -24.83,9.234c-5.897,6.156 -8.846,15.286 -8.846,27.39c0,12.209 3.078,21.365 9.234,27.469c6.156,6.104 14.562,9.156 25.218,9.156c9.725,-0 17.899,-1.862 24.52,-5.587c1.138,-0.621 2.017,-0.931 2.638,-0.931c0.724,0 1.449,0.569 2.173,1.707l6.052,10.398c0.414,0.724 0.621,1.345 0.621,1.862c-0,0.621 -0.621,1.397 -1.862,2.328c-8.07,5.794 -20.537,8.69 -37.401,8.69Z" style="fill:#1f221c;fill-rule:nonzero;"/><path d="M514.139,552.609c-17.588,0 -31.011,-4.81 -40.271,-14.432c-9.26,-9.622 -13.889,-23.175 -13.889,-40.66c-0,-17.484 4.629,-31.037 13.889,-40.659c9.26,-9.622 22.683,-14.432 40.271,-14.432c17.485,-0 30.857,4.81 40.117,14.432c9.259,9.622 13.889,23.175 13.889,40.659c0,17.485 -4.63,31.038 -13.889,40.66c-9.26,9.622 -22.632,14.432 -40.117,14.432Zm0,-18.467c9.415,-0 16.528,-3.078 21.339,-9.234c4.811,-6.156 7.216,-15.286 7.216,-27.391c0,-12.104 -2.405,-21.234 -7.216,-27.39c-4.811,-6.156 -11.924,-9.234 -21.339,-9.234c-9.518,-0 -16.682,3.078 -21.493,9.234c-4.811,6.156 -7.216,15.286 -7.216,27.39c-0,12.105 2.405,21.235 7.216,27.391c4.811,6.156 11.975,9.234 21.493,9.234Z" style="fill:#1f221c;fill-rule:nonzero;"/><path d="M587.854,550.282c-2.483,-0 -4.268,-0.544 -5.354,-1.63c-1.086,-1.086 -1.629,-2.767 -1.629,-5.044l-0,-92.182c-0,-2.276 0.543,-3.957 1.629,-5.043c1.086,-1.086 2.923,-1.63 5.509,-1.63l9.622,0c1.759,0 3.078,0.233 3.957,0.699c0.88,0.465 1.837,1.371 2.871,2.716l43.453,61.299l-0,-57.885c-0,-2.276 0.543,-3.984 1.629,-5.122c1.087,-1.138 2.871,-1.707 5.354,-1.707l11.64,0c2.586,0 4.397,0.544 5.431,1.63c1.035,1.086 1.552,2.819 1.552,5.199l0,92.026c0,2.277 -0.517,3.958 -1.552,5.044c-1.034,1.086 -2.845,1.63 -5.431,1.63l-9.777,-0c-1.656,-0 -2.923,-0.233 -3.802,-0.699c-0.88,-0.465 -1.837,-1.371 -2.871,-2.716l-43.608,-61.144l-0,57.885c-0,2.277 -0.518,3.958 -1.552,5.044c-1.035,1.086 -2.845,1.63 -5.432,1.63l-11.639,-0Z" style="fill:#1f221c;fill-rule:nonzero;"/><path d="M729.851,552.609c-8.069,0 -15.803,-0.853 -23.2,-2.56c-7.397,-1.707 -13.372,-4.113 -17.924,-7.216c-1.552,-1.139 -2.328,-2.173 -2.328,-3.104c-0,-0.621 0.258,-1.345 0.776,-2.173l6.362,-10.087c0.621,-1.035 1.294,-1.552 2.018,-1.552c0.621,-0 1.397,0.31 2.328,0.931c3.828,2.173 8.225,3.932 13.191,5.276c4.966,1.345 9.983,2.018 15.053,2.018c6.001,-0 10.449,-0.957 13.346,-2.871c2.897,-1.914 4.345,-4.94 4.345,-9.079c0,-2.793 -0.698,-5.069 -2.095,-6.828c-1.396,-1.759 -3.465,-3.311 -6.207,-4.656c-2.742,-1.344 -6.958,-3.103 -12.648,-5.276c-6.621,-2.483 -12.234,-5.018 -16.838,-7.604c-4.604,-2.587 -8.38,-5.923 -11.329,-10.01c-2.948,-4.086 -4.423,-9.078 -4.423,-14.976c0,-9.828 3.57,-17.355 10.708,-22.579c7.139,-5.225 16.554,-7.837 28.245,-7.837c15.415,-0 27.209,2.896 35.383,8.69c1.552,1.242 2.328,2.276 2.328,3.104c-0,0.621 -0.259,1.345 -0.776,2.173l-6.363,10.087c-0.621,1.034 -1.293,1.552 -2.018,1.552c-0.62,-0 -1.396,-0.311 -2.327,-0.931c-6.311,-4.139 -13.967,-6.208 -22.968,-6.208c-11.174,-0 -16.761,4.035 -16.761,12.105c0,2.69 0.647,4.888 1.94,6.595c1.293,1.707 3.078,3.156 5.354,4.345c2.276,1.19 5.846,2.716 10.708,4.579l4.345,1.707c7.553,3 13.502,5.819 17.847,8.457c4.345,2.639 7.682,5.872 10.01,9.7c2.328,3.828 3.492,8.742 3.492,14.743c-0,9 -3.389,16.165 -10.165,21.493c-6.777,5.328 -16.58,7.992 -29.409,7.992Z" style="fill:#1f221c;fill-rule:nonzero;"/><path d="M829.793,552.609c-9.518,0 -17.95,-1.603 -25.296,-4.81c-7.345,-3.208 -13.036,-7.837 -17.071,-13.89c-4.034,-6.052 -6.052,-13.165 -6.052,-21.338l0,-60.989c0,-2.276 0.543,-3.984 1.63,-5.122c1.086,-1.138 2.871,-1.707 5.354,-1.707l11.639,0c2.586,0 4.397,0.544 5.431,1.63c1.035,1.086 1.552,2.819 1.552,5.199l0,61.454c0,6.725 2.018,11.924 6.053,15.597c4.034,3.673 9.621,5.509 16.76,5.509c7.139,-0 12.699,-1.836 16.683,-5.509c3.983,-3.673 5.974,-8.872 5.974,-15.597l0,-61.454c0,-2.276 0.544,-3.984 1.63,-5.122c1.086,-1.138 2.871,-1.707 5.354,-1.707l11.639,0c2.587,0 4.423,0.569 5.509,1.707c1.087,1.138 1.63,2.846 1.63,5.122l-0,60.989c-0,8.173 -2.044,15.286 -6.13,21.338c-4.087,6.053 -9.777,10.682 -17.071,13.89c-7.294,3.207 -15.7,4.81 -25.218,4.81Z" style="fill:#1f221c;fill-rule:nonzero;"/><path d="M900.248,550.282c-2.483,-0 -4.267,-0.544 -5.354,-1.63c-1.086,-1.086 -1.629,-2.767 -1.629,-5.044l-0,-92.026c-0,-2.276 0.543,-3.984 1.629,-5.122c1.087,-1.138 2.871,-1.707 5.354,-1.707l11.64,0c2.586,0 4.397,0.544 5.431,1.63c1.035,1.086 1.552,2.819 1.552,5.199l0,79.922l43.763,-0c2.483,-0 4.19,0.517 5.121,1.552c0.932,1.034 1.397,2.741 1.397,5.121l0,5.587c0,2.379 -0.465,4.06 -1.397,5.043c-0.931,0.983 -2.638,1.475 -5.121,1.475l-62.386,-0Z" style="fill:#1f221c;fill-rule:nonzero;"/><path d="M990.723,550.282c-2.586,-0 -4.423,-0.544 -5.509,-1.63c-1.086,-1.086 -1.629,-2.767 -1.629,-5.044l-0,-79.922l-25.451,0c-2.483,0 -4.19,-0.491 -5.121,-1.474c-0.932,-0.983 -1.397,-2.664 -1.397,-5.044l-0,-5.742c-0,-2.379 0.465,-4.086 1.397,-5.121c0.931,-1.034 2.638,-1.552 5.121,-1.552l76.663,0c2.483,0 4.216,0.518 5.199,1.552c0.983,1.035 1.474,2.742 1.474,5.121l0,5.742c0,2.277 -0.491,3.932 -1.474,4.966c-0.983,1.035 -2.716,1.552 -5.199,1.552l-25.451,0l-0,79.922c-0,2.277 -0.543,3.958 -1.629,5.044c-1.087,1.086 -2.923,1.63 -5.51,1.63l-11.484,-0Z" style="fill:#1f221c;fill-rule:nonzero;"/><path d="M1058.08,550.282c-2.483,-0 -4.268,-0.544 -5.354,-1.63c-1.086,-1.086 -1.629,-2.767 -1.629,-5.044l-0,-92.026c-0,-2.276 0.543,-3.984 1.629,-5.122c1.086,-1.138 2.871,-1.707 5.354,-1.707l11.639,0c2.587,0 4.397,0.544 5.432,1.63c1.034,1.086 1.552,2.819 1.552,5.199l-0,92.026c-0,2.277 -0.518,3.958 -1.552,5.044c-1.035,1.086 -2.845,1.63 -5.432,1.63l-11.639,-0Z" style="fill:#1f221c;fill-rule:nonzero;"/><path d="M1099.51,550.282c-2.483,-0 -4.267,-0.544 -5.354,-1.63c-1.086,-1.086 -1.629,-2.767 -1.629,-5.044l0,-92.182c0,-2.276 0.543,-3.957 1.629,-5.043c1.087,-1.086 2.923,-1.63 5.51,-1.63l9.621,0c1.759,0 3.078,0.233 3.958,0.699c0.879,0.465 1.836,1.371 2.871,2.716l43.452,61.299l0,-57.885c0,-2.276 0.544,-3.984 1.63,-5.122c1.086,-1.138 2.871,-1.707 5.354,-1.707l11.639,0c2.587,0 4.397,0.544 5.432,1.63c1.034,1.086 1.552,2.819 1.552,5.199l-0,92.026c-0,2.277 -0.518,3.958 -1.552,5.044c-1.035,1.086 -2.845,1.63 -5.432,1.63l-9.777,-0c-1.655,-0 -2.923,-0.233 -3.802,-0.699c-0.879,-0.465 -1.836,-1.371 -2.871,-2.716l-43.608,-61.144l0,57.885c0,2.277 -0.517,3.958 -1.552,5.044c-1.034,1.086 -2.845,1.63 -5.431,1.63l-11.64,-0Z" style="fill:#1f221c;fill-rule:nonzero;"/><path d="M1254.54,552.609c-18.002,0 -31.943,-4.733 -41.823,-14.199c-9.881,-9.467 -14.821,-23.098 -14.821,-40.893c0,-17.794 4.966,-31.425 14.898,-40.892c9.932,-9.466 23.847,-14.199 41.746,-14.199c7.552,-0 14.484,0.75 20.795,2.25c6.311,1.5 11.536,3.647 15.674,6.44c1.138,0.724 1.707,1.552 1.707,2.483c0,0.414 -0.258,1.138 -0.776,2.173l-5.897,9.932c-0.724,1.138 -1.448,1.707 -2.173,1.707c-0.517,-0 -1.345,-0.31 -2.483,-0.931c-6.828,-3.725 -14.691,-5.587 -23.588,-5.587c-10.76,-0 -19.192,3.052 -25.296,9.156c-6.104,6.104 -9.156,15.26 -9.156,27.468c-0,12.312 2.845,21.468 8.535,27.469c5.691,6 13.709,9.001 24.055,9.001c3.31,-0 6.569,-0.259 9.776,-0.776c3.208,-0.517 5.794,-1.242 7.76,-2.173l-0,-23.899l-16.916,0c-2.483,0 -4.19,-0.491 -5.121,-1.474c-0.931,-0.983 -1.397,-2.664 -1.397,-5.044l0,-5.587c0,-2.276 0.466,-3.905 1.397,-4.888c0.931,-0.983 2.638,-1.474 5.121,-1.474l32.9,-0c2.897,-0 4.94,0.672 6.13,2.017c1.19,1.345 1.785,3.414 1.785,6.208l-0,39.418c-0,1.758 -0.207,3.103 -0.621,4.034c-0.414,0.932 -1.241,1.811 -2.483,2.639c-10.035,6.414 -23.278,9.621 -39.728,9.621Z" style="fill:#1f221c;fill-rule:nonzero;"/></g><defs><linearGradient id="_Linear1" x1="0" y1="0" x2="1" y2="0" gradientUnits="userSpaceOnUse" gradientTransform="matrix(135.824,-132.365,132.365,135.824,392.69,159.482)"><stop offset="0" style="stop-color:#37acdf;stop-opacity:1"/><stop offset="1" style="stop-color:#5674ab;stop-opacity:1"/></linearGradient><linearGradient id="_Linear2" x1="0" y1="0" x2="1" y2="0" gradientUnits="userSpaceOnUse" gradientTransform="matrix(-97.6922,-88.1216,88.1216,-97.6922,922.787,176.489)"><stop offset="0" style="stop-color:#5674ab;stop-opacity:1"/><stop offset="1" style="stop-color:#37acdf;stop-opacity:1"/></linearGradient><linearGradient id="_Linear3" x1="0" y1="0" x2="1" y2="0" gradientUnits="userSpaceOnUse" gradientTransform="matrix(-143.505,-159.949,159.949,-143.505,792.193,248.234)"><stop offset="0" style="stop-color:#5674ab;stop-opacity:1"/><stop offset="1" style="stop-color:#37acdf;stop-opacity:1"/></linearGradient><linearGradient id="_Linear4" x1="0" y1="0" x2="1" y2="0" gradientUnits="userSpaceOnUse" gradientTransform="matrix(88.2037,88.2037,-88.2037,88.2037,560.484,176.572)"><stop offset="0" style="stop-color:#5674ab;stop-opacity:1"/><stop offset="1" style="stop-color:#37acdf;stop-opacity:1"/></linearGradient><linearGradient id="_Linear5" x1="0" y1="0" x2="1" y2="0" gradientUnits="userSpaceOnUse" gradientTransform="matrix(-154.5,-146.392,146.392,-154.5,541.073,322.964)"><stop offset="0" style="stop-color:#5674ab;stop-opacity:1"/><stop offset="1" style="stop-color:#37acdf;stop-opacity:1"/></linearGradient><linearGradient id="_Linear6" x1="0" y1="0" x2="1" y2="0" gradientUnits="userSpaceOnUse" gradientTransform="matrix(77.2094,-88.518,88.518,77.2094,825.095,265.007)"><stop offset="0" style="stop-color:#37acdf;stop-opacity:1"/><stop offset="1" style="stop-color:#5674ab;stop-opacity:1"/></linearGradient><linearGradient id="_Linear7" x1="0" y1="0" x2="1" y2="0" gradientUnits="userSpaceOnUse" gradientTransform="matrix(77.3989,-0.120885,0.120885,77.3989,742.351,132.586)"><stop offset="0" style="stop-color:#37acdf;stop-opacity:1"/><stop offset="1" style="stop-color:#5674ab;stop-opacity:1"/></linearGradient><linearGradient id="_Linear8" x1="0" y1="0" x2="1" y2="0" gradientUnits="userSpaceOnUse" gradientTransform="matrix(65.4642,-61.1069,61.1069,65.4642,560.484,176.572)"><stop offset="0" style="stop-color:#37acdf;stop-opacity:1"/><stop offset="1" style="stop-color:#5674ab;stop-opacity:1"/></linearGradient><linearGradient id="_Linear9" x1="0" y1="0" x2="1" y2="0" gradientUnits="userSpaceOnUse" gradientTransform="matrix(-123.782,125.542,-125.542,-123.782,534.747,28.1726)"><stop offset="0" style="stop-color:#37acdf;stop-opacity:1"/><stop offset="1" style="stop-color:#5674ab;stop-opacity:1"/></linearGradient></defs></svg>